<svg xmlns:dc="http://purl.org/dc/elements/1.1/" xmlns:cc="http://creativecommons.org/ns#" xmlns:rdf="http://www.w3.org/1999/02/22-rdf-syntax-ns#" xmlns:svg="http://www.w3.org/2000/svg" xmlns="http://www.w3.org/2000/svg" xmlns:sodipodi="http://sodipodi.sourceforge.net/DTD/sodipodi-0.dtd" xmlns:inkscape="http://www.inkscape.org/namespaces/inkscape" version="1.1" x="0px" y="0px" viewBox="0 0 226.77999 46.229997" xml:space="preserve" id="svg148" sodipodi:docname="tindin_branco_horizontal.svg" width="226.78" height="46.23" inkscape:version="0.92.5 (2060ec1f9f, 2020-04-08)"><metadata id="metadata154"><rdf:RDF><cc:Work rdf:about=""><dc:format>image/svg+xml</dc:format><dc:type rdf:resource="http://purl.org/dc/dcmitype/StillImage"/><dc:title/></cc:Work></rdf:RDF></metadata><defs id="defs152"/><sodipodi:namedview pagecolor="currentColor" bordercolor="#666666" borderopacity="1" objecttolerance="10" gridtolerance="10" guidetolerance="10" inkscape:pageopacity="0" inkscape:pageshadow="2" inkscape:window-width="1920" inkscape:window-height="1016" id="namedview150" showgrid="false" inkscape:zoom="1.9907589" inkscape:cx="142.265" inkscape:cy="-3.6018399" inkscape:window-x="0" inkscape:window-y="27" inkscape:window-maximized="1" inkscape:current-layer="svg148"/>
<style type="text/css" id="style102">
	.st0{fill:currentColor;}
</style>

<g id="Camada_1" transform="translate(-184,-444.33)" style="fill:currentColor">



	<g id="g121" style="fill:currentColor">
		<path class="st0" d="m 305.23,445.03 v 45.52 h 18.08 c 5.82,0 8.72,-3.1 8.72,-9.29 v -26.95 c 0,-6.19 -2.91,-9.29 -8.72,-9.29 h -18.08 z m 16.57,38.35 c -0.26,0.28 -0.57,0.42 -0.95,0.42 h -5.77 v -32.09 h 5.77 c 0.38,0 0.69,0.14 0.95,0.42 0.26,0.28 0.39,0.61 0.39,0.99 v 29.27 c 0,0.38 -0.13,0.71 -0.39,0.99 z m 31.63,-38.35 v 45.52 h 9.85 v -45.52 z m 57.34,8.59 c 0,-6.19 -2.91,-9.29 -8.72,-9.29 h -8.73 c -5.82,0 -8.72,3.1 -8.72,9.29 v 36.94 h 9.85 v -37.78 c 0,-0.38 0.13,-0.7 0.39,-0.99 0.26,-0.28 0.57,-0.42 0.95,-0.42 h 3.8 c 0.38,0 0.69,0.14 0.95,0.42 0.26,0.28 0.39,0.61 0.39,0.99 v 37.78 h 9.85 v -36.94 z" id="path119" inkscape:connector-curvature="0" style="fill:currentColor"/>
	</g>
	<g id="g125" style="fill:currentColor">
		<path class="st0" d="m 191.39,453.41 v 37.15 h 9.85 v -37.15 h 7.39 v -8.37 H 184 v 8.37 z m 35.81,-8.38 v 45.52 h 9.85 v -45.52 z m 57.34,8.59 c 0,-6.19 -2.91,-9.29 -8.72,-9.29 h -8.72 c -5.82,0 -8.73,3.1 -8.73,9.29 v 36.94 h 9.85 v -37.78 c 0,-0.38 0.13,-0.7 0.39,-0.99 0.26,-0.28 0.57,-0.42 0.95,-0.42 h 3.8 c 0.38,0 0.69,0.14 0.95,0.42 0.26,0.28 0.39,0.61 0.39,0.99 v 37.78 h 9.85 v -36.94 z" id="path123" inkscape:connector-curvature="0" style="fill:currentColor"/>
	</g>





</g>
<g inkscape:groupmode="layer" id="layer3" inkscape:label="Layer 3" style="display:inline" transform="translate(-124.59,-29.45)"/></svg>
