<svg xmlns:dc="http://purl.org/dc/elements/1.1/" xmlns:cc="http://creativecommons.org/ns#" xmlns:rdf="http://www.w3.org/1999/02/22-rdf-syntax-ns#" xmlns:svg="http://www.w3.org/2000/svg" xmlns="http://www.w3.org/2000/svg" xmlns:sodipodi="http://sodipodi.sourceforge.net/DTD/sodipodi-0.dtd" xmlns:inkscape="http://www.inkscape.org/namespaces/inkscape" version="1.1" x="0px" y="0px" xml:space="preserve" id="svg148" sodipodi:docname="porquinho_branco_horizontal.svg" inkscape:version="0.92.5 (2060ec1f9f, 2020-04-08)" viewBox="0 0 92.45 84.8"><metadata id="metadata154"><rdf:rdf><cc:work rdf:about=""><dc:format>image/svg+xml</dc:format><dc:type rdf:resource="http://purl.org/dc/dcmitype/StillImage"></dc:type><dc:title></dc:title></cc:work></rdf:rdf></metadata><defs id="defs152"></defs><sodipodi:namedview pagecolor="currentColor" bordercolor="#666666" borderopacity="1" objecttolerance="10" gridtolerance="10" guidetolerance="10" inkscape:pageopacity="0" inkscape:pageshadow="2" inkscape:window-width="1920" inkscape:window-height="1016" id="namedview150" showgrid="false" inkscape:zoom="1.9907589" inkscape:cx="142.265" inkscape:cy="76.769518" inkscape:window-x="0" inkscape:window-y="27" inkscape:window-maximized="1" inkscape:current-layer="svg148"></sodipodi:namedview> <style type="text/css" id="style102"> 	.st0{fill:currentColor;} </style>  <g id="Camada_1" transform="translate(-59.41,-414.88)" style="fill:currentColor"> 	<g id="g109" style="fill:currentColor"> 		<path class="st0" d="m 127.54,453.72 c -0.43,-5.39 -2.16,-11.75 -4.87,-15.66 l -0.67,-16.7 -8.01,0.1 -5.17,5.75 c -3.89,-1.54 -8.18,-2.38 -12.72,-2.32 -5.04,0.06 -9.81,1.24 -14.08,3.24 l -13.22,-13.25 -0.31,24.48 0.36,-0.11 c -2.38,3.5 -3.96,9.24 -4.63,13.98 3.27,-2.56 7.32,-4.09 11.72,-4.09 h 39.99 v 0.02 c 4.4,0.16 8.41,1.85 11.61,4.56 z m -33.93,-9.79 c 0,1.9 -1.54,3.44 -3.44,3.44 -1.9,0 -3.44,-1.54 -3.44,-3.44 0,-1.9 1.54,-3.44 3.44,-3.44 1.9,0 3.44,1.54 3.44,3.44 z m 13.76,-1.66 c 0,2.81 -2.28,5.09 -5.09,5.09 -2.81,0 -5.09,-2.28 -5.09,-5.09 0,-2.81 2.28,-5.09 5.09,-5.09 2.81,0 5.09,2.28 5.09,5.09 z" id="path107" inkscape:connector-curvature="0" style="fill:currentColor"></path> 	</g> 	<g id="g113" style="fill:currentColor"> 		<path class="st0" d="m 150.51,499.63 h -13.54 c -0.74,0 -1.35,-0.6 -1.35,-1.35 0,-0.75 0.6,-1.35 1.35,-1.35 h 13.54 c 0.74,0 1.35,0.6 1.35,1.35 0,0.75 -0.61,1.35 -1.35,1.35 z" id="path111" inkscape:connector-curvature="0" style="fill:currentColor"></path> 	</g> 	<g id="g117" style="fill:currentColor"> 		<path class="st0" d="m 139.51,464.82 c -0.26,0 -0.52,-0.08 -0.74,-0.25 -0.53,-0.41 -0.62,-1.17 -0.21,-1.7 0.5,-0.64 1.04,-1.21 1.61,-1.7 -0.54,-0.55 -1.18,-1.34 -1.08,-2.51 0.11,-1.41 1.19,-2.58 2.45,-3.33 -0.4,-0.54 -0.68,-1.16 -0.78,-1.8 -0.16,-0.99 0.1,-1.97 0.74,-2.75 0.42,-0.52 1.18,-0.61 1.7,-0.19 0.52,0.42 0.6,1.18 0.19,1.71 -0.21,0.26 -0.28,0.54 -0.23,0.85 0.07,0.44 0.39,0.92 0.81,1.18 0.06,0.04 0.13,0.08 0.19,0.12 0.01,0 0.02,0 0.03,0 1.33,-0.08 2.95,0.28 3.54,1.54 l 0.34,0.74 -0.56,0.6 c -0.49,0.52 -1.4,1 -3.8,-0.33 -1,0.32 -2.14,1.17 -2.19,1.85 -0.01,0.18 0.13,0.37 0.59,0.82 0.06,0.06 0.11,0.11 0.17,0.17 0.37,-0.16 0.73,-0.27 1.08,-0.33 1.34,-0.24 4.06,0.33 4.47,2.3 0.23,1.09 -0.26,1.73 -0.58,2.01 -0.79,0.71 -2.04,0.66 -2.87,0.39 -0.82,-0.26 -1.67,-0.79 -2.41,-1.36 -0.52,0.41 -1.03,0.93 -1.48,1.51 -0.26,0.3 -0.62,0.46 -0.98,0.46 z" id="path115" inkscape:connector-curvature="0" style="fill:currentColor"></path> 	</g>   	<g id="g129" style="fill:currentColor"> 		<path class="st0" d="m 132.26,469.67 c 0,-9.83 -7.79,-17.84 -17.54,-18.2 v -0.02 h -37.1 c -10.06,0 -18.21,8.15 -18.21,18.21 0,10.06 8.15,18.21 18.21,18.21 6.02,0 11.35,-2.92 14.67,-7.42 h 7.09 c 3.32,4.5 8.65,7.42 14.67,7.42 10.06,0.01 18.21,-8.14 18.21,-18.2 z m -46.97,3 h -4.43 v 4.43 h -5.83 v -4.43 H 70.6 v -5.83 h 4.43 v -4.43 h 5.83 v 4.43 h 4.43 z M 112,469.76 c 0,1.31 -1.06,2.38 -2.38,2.38 -1.31,0 -2.37,-1.06 -2.37,-2.38 0,-1.31 1.06,-2.37 2.37,-2.37 1.32,0 2.38,1.06 2.38,2.37 z m 4.86,-4.86 c 0,1.31 -1.06,2.38 -2.37,2.38 -1.31,0 -2.38,-1.06 -2.38,-2.38 0,-1.31 1.06,-2.37 2.38,-2.37 1.31,0 2.37,1.06 2.37,2.37 z m 0,9.72 c 0,1.31 -1.06,2.38 -2.37,2.38 -1.31,0 -2.38,-1.06 -2.38,-2.38 0,-1.32 1.06,-2.37 2.38,-2.37 1.31,-0.01 2.37,1.06 2.37,2.37 z m 4.86,-4.86 c 0,1.31 -1.06,2.38 -2.38,2.38 -1.31,0 -2.37,-1.06 -2.37,-2.38 0,-1.31 1.06,-2.37 2.37,-2.37 1.32,0 2.38,1.06 2.38,2.37 z" id="path127" inkscape:connector-curvature="0" style="fill:currentColor"></path> 	</g> 	<g id="g133" style="fill:currentColor"> 		<path class="st0" d="m 78.72,489.92 c 4.35,2.95 10.22,4.78 16.74,4.78 6.51,0 12.38,-1.83 16.73,-4.78 v 0 c -4.03,0 -7.75,-1.34 -10.74,-3.6 -0.65,0.64 -1.51,1.06 -2.5,1.06 -2.05,0 -3.71,-1.66 -3.71,-3.7 v -1.03 H 94.6 v 3.3 c 0,2.05 -1.66,3.71 -3.7,3.71 -1.44,0 -2.64,-0.85 -3.23,-2.06 -2.6,1.48 -5.6,2.33 -8.81,2.33 -0.05,0 -0.1,-0.01 -0.14,-0.01 z" id="path131" inkscape:connector-curvature="0" style="fill:currentColor"></path> 	</g> 	<g id="g137" style="fill:currentColor"> 		<path class="st0" d="M 95.44,456.97" id="path135" inkscape:connector-curvature="0" style="fill:currentColor"></path> 	</g> 	<g id="g141" style="fill:currentColor"> 		<path class="st0" d="m 148.43,499.68 v -18.96 c -0.35,-9.29 -6.75,-17.07 -15.55,-19.91 1.29,2.69 2.03,5.68 2.03,8.86 0,10.65 -8.12,19.36 -18.51,20.39 -2.51,2.62 -6.26,4.69 -10.73,5.88 v 3.74 h 11.15 c 0,-0.01 0,-0.03 0,-0.04 v -5.33 c 0,-0.75 0.6,-1.35 1.35,-1.35 0.75,0 1.35,0.6 1.35,1.35 l 0.03,5.37 z m -54.43,0 h 8.97 v -3.15 c -1.93,0.34 -3.95,0.52 -6.04,0.52 -0.99,0 -1.97,-0.05 -2.93,-0.12 z" id="path139" inkscape:connector-curvature="0" style="fill:currentColor"></path> 	</g> 	<g id="g145" style="fill:currentColor"> 		<path class="st0" d="M 101.14,499.63 H 91.9 c -0.74,0 -1.35,-0.6 -1.35,-1.35 0,-0.75 0.6,-1.35 1.35,-1.35 h 9.24 c 0.74,0 1.35,0.6 1.35,1.35 0,0.75 -0.61,1.35 -1.35,1.35 z" id="path143" inkscape:connector-curvature="0" style="fill:currentColor"></path> 	</g> </g> <g inkscape:groupmode="layer" id="layer3" inkscape:label="Layer 3" style="display:inline"></g></svg>
